<?xml version="1.0" standalone="no"?>
<!DOCTYPE svg PUBLIC "-//W3C//DTD SVG 20010904//EN"
 "http://www.w3.org/TR/2001/REC-SVG-20010904/DTD/svg10.dtd">
<svg version="1.0" xmlns="http://www.w3.org/2000/svg"
 width="312.000000pt" height="312.000000pt" viewBox="0 0 312.000000 312.000000"
 preserveAspectRatio="xMidYMid meet">
<metadata>
Created by potrace 1.14, written by Peter Selinger 2001-2017
</metadata>
<g transform="translate(0.000000,312.000000) scale(0.100000,-0.100000)"
fill="#000000" stroke="none">
<path d="M1719 3106 c-1 -1 -2 -72 -3 -159 -2 -151 -1 -158 19 -162 105 -20
244 -58 307 -85 317 -132 580 -408 693 -730 110 -311 88 -678 -58 -966 -52
-102 -153 -240 -241 -328 l-91 -91 -3 212 -2 212 -158 -2 -157 -2 0 -467 0
-468 470 0 471 0 -1 157 0 158 -182 0 c-202 0 -194 -5 -116 68 102 95 219 260
298 422 111 227 150 402 150 675 0 176 -8 257 -40 387 -66 272 -195 500 -400
708 -250 253 -524 394 -872 449 -46 7 -84 12 -84 12z"/>
<path d="M159 3035 c-1 0 -2 -71 -3 -157 l-1 -158 184 0 184 0 -73 -72 c-227
-226 -386 -537 -434 -853 -14 -91 -15 -411 -1 -485 28 -153 86 -332 148 -455
232 -462 684 -784 1192 -850 l50 -7 0 155 c0 86 -2 158 -5 160 -3 3 -24 8 -47
12 -237 35 -485 161 -662 337 -169 167 -274 341 -336 559 -38 134 -51 349 -31
504 6 42 18 101 40 185 32 122 144 325 242 440 58 67 156 160 164 155 4 -3 7
-95 6 -205 l-1 -200 25 -1 c179 -5 290 -2 291 6 0 15 0 854 0 895 l-1 35 -465
0 c-256 0 -466 0 -466 0z"/>
<path d="M1776 1719 l-439 -440 -216 215 c-119 119 -220 216 -224 216 -4 0
-56 -47 -114 -105 l-107 -105 67 -68 c489 -495 587 -592 594 -592 4 0 255 247
557 549 l550 550 -109 110 c-60 61 -112 111 -115 111 -3 -1 -203 -199 -444
-441z"/>
</g>
</svg>
